<?xml version="1.0" encoding="UTF-8"?>
<!DOCTYPE svg PUBLIC "-//W3C//DTD SVG 1.1//EN" "http://www.w3.org/Graphics/SVG/1.1/DTD/svg11.dtd">
<svg xmlns="http://www.w3.org/2000/svg" version="1.1" width="108px" height="91px" style="shape-rendering:geometricPrecision; text-rendering:geometricPrecision; image-rendering:optimizeQuality; fill-rule:evenodd; clip-rule:evenodd" xmlns:xlink="http://www.w3.org/1999/xlink">
<g><path style="opacity:0.918" fill="#fefffe" d="M 70.5,-0.5 C 73.5,-0.5 76.5,-0.5 79.5,-0.5C 96.0758,4.40542 105.409,15.4054 107.5,32.5C 107.5,33.8333 107.5,35.1667 107.5,36.5C 105.765,49.7806 99.0981,59.9473 87.5,67C 90.9553,71.4109 94.2886,75.9109 97.5,80.5C 94.2333,83.8059 90.5667,86.6392 86.5,89C 85.365,89.7494 84.365,89.5827 83.5,88.5C 77.2909,80.1281 71.2909,71.6281 65.5,63C 68.7204,58.9569 72.7204,55.7902 77.5,53.5C 78.9008,55.6264 80.7341,57.2931 83,58.5C 85.1552,57.4208 87.1552,56.0874 89,54.5C 88.9115,52.1383 88.0781,49.9716 86.5,48C 94.0394,35.8237 92.0394,25.4903 80.5,17C 77.5101,16.1026 74.5101,15.2692 71.5,14.5C 70.5059,9.54396 70.1725,4.54396 70.5,-0.5 Z"/></g>
<g><path style="opacity:0.743" fill="#fefffe" d="M 50.5,3.5 C 52.5,3.5 54.5,3.5 56.5,3.5C 56.5,5.83333 56.5,8.16667 56.5,10.5C 52.5428,11.4114 48.5428,12.4114 44.5,13.5C 44.1924,11.076 44.5258,8.74269 45.5,6.5C 47.5976,6.04279 49.2642,5.04279 50.5,3.5 Z"/></g>
<g><path style="opacity:0.815" fill="#fefffe" d="M 52.5,12.5 C 53.8282,17.4558 54.4949,22.7891 54.5,28.5C 54.3333,33.8333 54.1667,39.1667 54,44.5C 52.7168,48.1854 50.3834,49.5188 47,48.5C 46.3333,37.5 46.3333,26.5 47,15.5C 48.8761,14.3913 50.7095,13.3913 52.5,12.5 Z"/></g>
<g><path style="opacity:0.856" fill="#fefffe" d="M 26.5,48.5 C 24.1862,46.5227 21.8528,44.5227 19.5,42.5C 19.8076,41.6919 20.3076,41.0253 21,40.5C 24,43.1667 27,43.1667 30,40.5C 31.1667,36.5 32.3333,32.5 33.5,28.5C 32.1871,26.6076 32.3538,24.941 34,23.5C 37.4717,25.4791 40.6383,27.8125 43.5,30.5C 41.6657,35.8391 39.8324,41.1724 38,46.5C 34.6983,49.7122 30.865,50.3788 26.5,48.5 Z"/></g>
<g><path style="opacity:0.887" fill="#fefffe" d="M 67.5,27.5 C 76.7784,26.3759 80.2784,30.3759 78,39.5C 74.0168,44.3236 69.6835,44.657 65,40.5C 62.4668,35.3513 63.3001,31.018 67.5,27.5 Z"/></g>
<g><path style="opacity:0.788" fill="#fefffe" d="M 12.5,36.5 C 13.8333,36.5 15.1667,36.5 16.5,36.5C 16.5,38.8333 16.5,41.1667 16.5,43.5C 13.2107,44.3739 9.87741,45.0405 6.5,45.5C 6.5,43.1667 6.5,40.8333 6.5,38.5C 8.7857,38.405 10.7857,37.7384 12.5,36.5 Z"/></g>
<g><path style="opacity:0.85" fill="#fefffe" d="M 26.5,48.5 C 26.3341,53.5111 26.5007,58.5111 27,63.5C 28.6195,65.7262 30.7862,67.0596 33.5,67.5C 39.4029,65.4204 45.4029,63.7537 51.5,62.5C 51.5,60.8333 51.5,59.1667 51.5,57.5C 45.5379,59.0439 39.5379,60.3772 33.5,61.5C 33.3011,58.059 33.8011,54.7256 35,51.5C 36.9218,48.9108 39.0885,48.4108 41.5,50C 39.9095,51.0458 38.4095,52.2125 37,53.5C 36.2025,55.2588 36.3691,56.9255 37.5,58.5C 42.9891,56.3353 48.6558,55.002 54.5,54.5C 54.5,60.5 54.5,66.5 54.5,72.5C 47.5183,74.493 40.5183,76.493 33.5,78.5C 27.3461,77.3481 24.0128,73.6814 23.5,67.5C 19.8338,67.9578 16.3338,68.9578 13,70.5C 13.6917,80.307 9.19173,84.9736 -0.5,84.5C -0.5,81.1667 -0.5,77.8333 -0.5,74.5C 0.765972,73.9101 2.0993,73.4101 3.5,73C -0.858276,63.9848 1.97506,58.4848 12,56.5C 12.3333,57.5 12.6667,58.5 13,59.5C 16.073,58.1416 19.2397,56.9749 22.5,56C 23.435,53.6194 23.7683,51.1194 23.5,48.5C 24.5,48.5 25.5,48.5 26.5,48.5 Z"/></g>
<g><path style="opacity:0.762" fill="#fefffe" d="M 17.5,76.5 C 20.5,77.8333 23.5,77.8333 26.5,76.5C 27.3944,81.6459 25.2278,84.3126 20,84.5C 18.1444,83.2643 16.3111,83.2643 14.5,84.5C 12.5825,80.5004 13.5825,77.8338 17.5,76.5 Z"/></g>
</svg>
